<svg version="1.1" id="Layer_1" xmlns="http://www.w3.org/2000/svg" xmlns:xlink="http://www.w3.org/1999/xlink" x="0px" y="0px"
     width="100%" viewBox="0 0 600 528" enable-background="new 0 0 1024 528" xml:space="preserve">

  <style>
    /* kleuren per slice; pas aan naar wens */
    .slice { stroke: none; }
    .s1  { fill: #B6A35F; }
    .s2  { fill: #012753; }
    .s3  { fill: #012753; }
    .s4  { fill: #012753; }
    .s5  { fill: #012753; }
    .s6  { fill: #012753; }
    .s7  { fill: #012753; }
    .s8  { fill: #012753; }
    .s9  { fill: #012753; }
    .s10 { fill: #012753; }
    .s11 { fill: #012753; }
    .s12 { fill: #012753; }
  </style>

  <!-- s1 -->
  <path class="slice s1" opacity="1.000000" stroke="none"
        d="
M404.489380,513.720520 
	C373.568268,521.831299 342.612610,526.178772 310.960388,526.571289 
	C265.424194,527.136108 221.107285,520.800110 178.310913,505.191162 
	C150.955017,495.213806 125.966988,481.055695 105.699806,459.679840 
	C93.330704,446.634094 84.285011,431.662323 81.231918,413.610535 
	C80.818832,411.168091 80.690277,408.651672 80.688477,406.169312 
	C80.658127,364.338654 80.861618,322.506714 80.588837,280.677795 
	C80.453087,259.862610 87.804451,241.971161 100.228767,225.864502 
	C116.297104,205.033707 137.589417,190.946320 161.072632,179.927765 
	C187.784149,167.394455 215.998886,159.897141 245.154999,155.888351 
	C253.211044,154.780701 261.354614,154.149582 269.479919,153.775665 
	C273.314331,153.599213 275.126160,152.486160 274.652740,148.528976 
	C274.435699,146.714706 274.377777,144.881317 274.157257,143.067566 
	C273.043396,133.905960 277.047302,127.082748 285.634857,123.767578 
	C287.643127,122.992294 289.765167,122.505714 291.845917,121.926086 
	C293.378357,121.499214 295.297668,121.740501 295.422394,119.295120 
	C295.536102,117.066330 294.773102,115.709915 292.692688,114.567879 
	C282.305176,108.865631 276.033386,99.867592 273.227051,88.551903 
	C270.879761,79.087006 272.216736,69.764648 275.454865,60.635849 
	C280.445740,46.565845 288.688202,34.139709 295.451202,20.969828 
	C297.774323,16.445904 303.536133,16.042341 306.147278,20.377653 
	C316.617004,37.760738 328.169922,55.011921 329.856689,75.855606 
	C331.020935,90.242195 324.618744,102.372894 312.953857,111.318802 
	C311.635620,112.329735 310.088318,113.059502 308.842743,114.144196 
	C305.758087,116.830391 306.647247,120.783600 310.530396,122.080284 
	C312.891541,122.868752 315.316528,123.521751 317.582825,124.528290 
	C324.180359,127.458481 327.541199,132.488174 327.384338,139.856064 
	C327.296082,144.002045 326.274841,148.859955 328.037964,152.117661 
	C329.989929,155.724319 335.366699,153.625198 339.172424,154.013092 
	C358.695251,156.002914 378.080811,158.715897 397.096375,163.640640 
	C429.816742,172.114731 460.599182,184.812454 487.011200,206.450470 
	C507.125122,222.928802 522.055847,242.911179 526.821838,269.184906 
	C527.619690,273.583344 528.064392,278.109070 528.074585,282.577301 
	C528.160950,320.407776 527.380798,358.256744 528.327087,396.063477 
	C529.091370,426.598816 515.668701,449.547089 493.708557,468.599060 
	C467.913788,490.977905 437.471893,504.481781 404.489380,513.720520 
"/>

  <!-- s2 -->
  <path class="slice s2" stroke="none"
        d="
M364.676361,324.799438 
	C379.323151,337.124939 393.996948,349.418457 408.609039,361.784973 
	C422.917236,373.894287 422.915833,373.985535 440.019257,366.343842 
	C463.069122,356.045349 484.071381,342.843323 500.384369,323.124817 
	C519.860962,299.582153 522.047852,271.823212 506.393494,245.733185 
	C504.690918,242.895584 503.419128,239.619186 498.465973,240.768723 
	C468.207520,247.791122 437.894196,254.580780 407.564178,261.289856 
	C378.699036,267.674927 349.793610,273.878021 320.896393,280.117096 
	C319.024353,280.521240 317.223907,280.828369 316.735077,283.026306 
	C316.275696,285.091949 317.977692,286.003540 319.193939,287.017273 
	C334.154144,299.486481 349.152222,311.910248 364.676361,324.799438 
"/>

  <!-- s3 -->
  <path class="slice s3" stroke="none"
        d="
M144.158630,353.303192 
	C158.606247,362.016968 173.834198,369.046509 189.660843,374.889618 
	C193.525497,376.316437 195.858322,375.803558 198.708908,372.810303 
	C219.043091,351.458099 239.595627,330.314026 260.024139,309.051361 
	C266.949127,301.843628 273.764374,294.528595 280.536194,287.176422 
	C283.898590,283.525879 283.286896,281.542938 278.603577,280.147278 
	C277.489899,279.815399 276.344391,279.584198 275.205963,279.342255 
	C256.840698,275.438965 238.409851,271.819397 220.121490,267.584381 
	C182.884857,258.961426 145.715118,250.047882 108.552376,241.110413 
	C105.653793,240.413330 103.763428,240.682281 102.275925,243.284210 
	C89.991066,264.772736 87.053421,286.772003 99.103615,309.351654 
	C109.319717,328.494568 125.578423,341.606171 144.158630,353.303192 
"/>

  <!-- s4 -->
  <path class="slice s4" stroke="none"
        d="
M252.118408,332.616943 
	C237.268753,348.035797 222.419098,363.454620 207.488724,378.957275 
	C233.880280,398.547638 381.435028,396.998749 408.733795,377.442810 
	C407.896362,375.341644 406.191650,373.961029 404.536072,372.587982 
	C371.210022,344.949066 338.685486,316.347198 304.712738,289.485321 
	C298.781799,284.795807 298.029480,284.749481 292.708649,290.260773 
	C279.290131,304.159607 265.960358,318.144073 252.118408,332.616943 
"/>

  <!-- s5 -->
  <path class="slice s5" stroke="none"
        d="
M488.305695,223.167450 
	C485.371216,220.458282 482.587067,217.561569 479.478363,215.069733 
	C455.675568,195.990219 428.261566,184.298218 399.109741,176.362213 
	C377.733704,170.542999 355.915741,167.306763 333.790680,165.991867 
	C327.407135,165.612488 326.501678,166.121811 326.310089,172.431320 
	C325.865417,187.073898 325.343018,201.714127 324.850433,216.355240 
	C324.341187,231.491928 323.741943,246.626373 323.371704,261.766449 
	C323.257050,266.454132 325.528442,268.133545 330.000519,267.205200 
	C341.216309,264.877106 352.443024,262.593903 363.623291,260.103790 
	C404.639832,250.968399 445.642059,241.768661 486.636536,232.534729 
	C488.647125,232.081848 491.219635,232.036133 491.937439,229.459671 
	C492.714722,226.669754 490.242401,225.384338 488.305695,223.167450 
"/>

  <!-- s6 -->
  <path class="slice s6" stroke="none"
        d="
M245.136856,400.461365 
	C230.765228,399.119263 217.004608,394.610016 203.067245,391.745361 
	C201.851028,393.999512 202.239029,395.867126 202.233673,397.662842 
	C202.195892,410.324738 202.398727,422.991241 202.105453,435.646515 
	C202.001175,440.146606 203.564468,442.081818 207.848312,443.265015 
	C235.724792,450.964417 264.192169,454.622101 292.996918,455.593750 
	C314.624146,456.323303 336.165649,454.893066 357.641205,451.871643 
	C375.467255,449.363708 392.907440,445.397156 410.197815,440.531860 
	C414.862915,439.219147 416.954803,436.949127 416.795746,431.736877 
	C416.414856,419.253113 416.704102,406.749603 416.645233,394.254425 
	C416.637085,392.519653 417.263885,390.566193 415.469604,388.905548 
	C414.464508,389.036102 413.283569,389.017487 412.214020,389.353485 
	C384.312836,398.118469 355.750702,402.880981 326.552460,404.624573 
	C299.509857,406.239410 272.716431,404.712250 245.136856,400.461365 
"/>

  <!-- s7 -->
  <path class="slice s7" stroke="none"
        d="
M274.790527,171.143082 
	C274.268463,167.208099 272.242554,165.189819 268.062958,165.588882 
	C243.216919,167.961258 218.611145,171.635986 194.774506,179.337723 
	C165.426071,188.820389 138.562210,202.627716 116.604301,224.819275 
	C115.054726,226.385345 112.869102,227.667465 112.938683,230.319580 
	C114.554588,231.962967 116.679802,232.023193 118.555290,232.478073 
	C143.563156,238.543564 168.558060,244.669571 193.627838,250.470764 
	C218.857254,256.308899 244.161865,261.823059 269.443939,267.432159 
	C277.270752,269.168610 277.777100,268.795807 277.628448,260.803009 
	C277.495422,253.653534 276.985901,246.511932 276.771881,239.362976 
	C276.099762,216.913681 275.488617,194.462570 274.790527,171.143082 
"/>

  <!-- s8 -->
  <path class="slice s8" stroke="none"
        d="
M120.170769,350.357635 
	C112.129837,344.083252 105.104881,336.770355 98.390511,329.131866 
	C97.355377,327.954285 96.472885,326.149384 94.349174,327.086487 
	C92.808792,327.766205 92.309738,329.129883 92.101006,330.709229 
	C88.999870,354.173401 94.146606,374.803711 111.737144,391.792877 
	C129.000992,408.466492 149.037460,420.653259 170.805313,430.264984 
	C176.951630,432.978943 182.981094,436.138458 189.525650,437.311554 
	C191.122864,435.271362 190.655106,433.369751 190.662048,431.594391 
	C190.708969,419.607513 190.693298,407.620331 190.690216,395.633270 
	C190.688049,387.273346 190.692230,387.246552 182.757294,384.401733 
	C160.361206,376.372345 139.394424,365.711243 120.170769,350.357635 
"/>

  <!-- s9 -->
  <path class="slice s9" stroke="none"
        d="
M484.870178,402.366364 
	C491.039368,397.266846 497.041534,391.974274 502.188232,385.824127 
	C508.673187,378.074799 513.692932,369.505371 515.626160,359.440552 
	C517.398621,350.212677 516.516785,340.859406 516.643005,331.556610 
	C516.670044,329.567383 516.809509,327.276855 514.376587,326.538727 
	C512.179993,325.872223 511.179382,327.828156 510.017822,329.197327 
	C500.706970,340.172516 490.135742,349.758789 478.371948,358.047516 
	C464.130432,368.082001 448.668762,375.767090 432.431091,381.951233 
	C429.824005,382.944183 427.623413,383.832458 427.681519,387.362732 
	C427.906281,401.015533 427.903412,414.671997 428.043182,428.326477 
	C428.059509,429.921570 427.694550,431.685242 429.560669,433.503601 
	C449.154297,425.950256 467.420502,415.636780 484.870178,402.366364 
"/>

  <!-- s10 -->
  <path class="slice s10" stroke="none"
        d="
M287.504822,151.670853 
	C284.546997,151.914551 285.448944,154.234085 285.383514,155.859161 
	C285.021515,164.849228 285.927460,173.805328 286.197449,182.778000 
	C287.037994,210.710571 287.641418,238.650314 288.317657,266.587738 
	C288.362732,268.451080 288.337250,270.279114 290.114838,271.489288 
	C295.553345,275.191864 301.145538,275.259888 307.157257,272.768433 
	C312.446442,270.576416 312.587036,266.329468 312.686340,261.671173 
	C313.023102,245.874878 313.372040,230.076599 313.972076,214.288803 
	C314.729431,194.362793 315.741669,174.446487 316.627197,154.525253 
	C316.670959,153.540390 316.685303,152.507828 315.265015,151.373505 
	C306.613312,153.380920 297.441162,154.541199 287.504822,151.670853 
"/>

  <!-- s11 -->
  <path class="slice s11" stroke="none"
        d="
M309.051636,99.841064 
	C312.146820,97.204002 314.356842,93.973274 316.028595,90.251762 
	C319.900055,81.633507 319.078522,73.099121 315.998810,64.524109 
	C312.236389,54.047993 307.585968,44.042473 300.595551,34.348560 
	C295.447876,42.241867 291.630585,49.954037 287.937836,57.748482 
	C284.369293,65.280731 282.509399,73.164688 283.380005,81.466599 
	C284.232452,89.595818 287.238892,96.677231 295.692078,102.257996 
	C295.692078,97.606506 295.698792,94.184387 295.690216,90.762306 
	C295.681274,87.189819 298.038635,85.494904 301.028015,85.312294 
	C304.352631,85.109215 306.108307,87.392525 306.310455,90.687622 
	C306.432770,92.681282 306.252991,94.705132 306.515717,96.674492 
	C306.695099,98.019066 305.990723,100.154922 309.051636,99.841064 
"/>

  <!-- s12 -->
  <path class="slice s12" stroke="none"
        d="
M292.940247,133.295441 
	C290.212341,133.912506 287.492004,134.542679 285.803162,137.030228 
	C290.911835,144.115860 310.035004,144.562164 315.766754,137.257050 
	C310.939423,132.679688 309.934082,132.684036 305.492493,137.301605 
	C302.578796,140.330765 298.698547,139.790741 296.243011,136.077927 
	C295.522675,134.988754 295.975220,132.755127 292.940247,133.295441 
"/>
</svg>
